<?xml version="1.0" encoding="UTF-8"?>
<svg id="Layer_1" data-name="Layer 1" xmlns="http://www.w3.org/2000/svg" version="1.1" viewBox="0 0 340.5 292.1">
  <defs>
    <style>
      .cls-1 {
        fill: #000;
        stroke-width: 0px;
      }
    </style>
  </defs>
  <g>
    <path class="cls-1" d="M4.5,280v-66.2h13.9c3,0,5.6.5,7.8,1.4,2.1.9,3.9,2.2,5.3,3.7,1.4,1.6,2.3,3.3,2.9,5.4s.9,4.1.9,6.3v2.4c0,1.8,0,3.3-.4,4.6-.3,1.2-.7,2.3-1.3,3.3-1.1,1.7-2.7,3.2-4.8,4.5,2.2,1.1,3.9,2.6,4.9,4.6,1,2.1,1.6,4.8,1.6,8.4v3.7c0,5.8-1.4,10.3-4.2,13.4s-7.3,4.6-13.5,4.6H4.5ZM13.9,222.6v18.2h4.3c3.2,0,5.3-.8,6.4-2.4,1.1-1.6,1.6-3.9,1.6-6.9s-.6-5.2-1.8-6.7c-1.2-1.5-3.4-2.2-6.6-2.2h-3.9ZM13.9,249.2v21.2h4.1c1.9,0,3.4-.3,4.5-.8s1.9-1.3,2.5-2.3.9-2.2,1-3.5c.1-1.4.2-2.9.2-4.5s0-3.1-.3-4.4c-.2-1.2-.6-2.3-1.1-3.2-.6-.9-1.5-1.5-2.5-1.9-1.1-.4-2.5-.6-4.2-.6h-4.2Z"/>
    <path class="cls-1" d="M45,280l14.8-66.2h7.9l14.8,66.2h-9.5l-2.8-14.2h-12.9l-2.8,14.2s-9.5,0-9.5,0ZM68.5,256.8l-4.7-24h-.2l-4.7,24h9.6Z"/>
    <path class="cls-1" d="M93.5,280v-66.2h9.5v56.7h18.8v9.5h-28.3Z"/>
    <path class="cls-1" d="M134.2,280v-66.2h9.5v56.7h18.8v9.5h-28.3Z"/>
    <path class="cls-1" d="M175.2,280v-28l-13-38.2h10.1l7.6,26.3h.2l7.6-26.3h10.1l-13,38.2v28h-9.6Z"/>
    <path class="cls-1" d="M208.8,280v-66.2h9.5v28.4h11.7v-28.4h9.5v66.2h-9.5v-29.5h-11.7v29.5h-9.5Z"/>
    <path class="cls-1" d="M254.2,229.4c0-2.7.5-5,1.4-7.1.9-2.1,2.2-3.8,3.7-5.1s3.2-2.3,5.1-3,3.8-1,5.7-1,3.8.3,5.7,1c1.9.7,3.6,1.7,5.2,3,1.5,1.4,2.7,3.1,3.6,5.1.9,2.1,1.4,4.4,1.4,7.1v35c0,2.8-.5,5.2-1.4,7.2s-2.1,3.6-3.6,4.9c-1.5,1.4-3.3,2.4-5.2,3.1s-3.8,1-5.7,1-3.8-.3-5.7-1-3.6-1.7-5.1-3.1c-1.5-1.3-2.8-2.9-3.7-4.9-.9-2-1.4-4.4-1.4-7.2v-35ZM263.7,264.3c0,2.3.6,4,1.9,5.1s2.8,1.6,4.5,1.6,3.2-.5,4.5-1.6,1.9-2.8,1.9-5.1v-35c0-2.3-.6-4-1.9-5.1s-2.8-1.6-4.5-1.6-3.2.5-4.5,1.6-1.9,2.8-1.9,5.1v35Z"/>
    <path class="cls-1" d="M300.2,229.4c0-2.7.5-5,1.4-7.1s2.2-3.8,3.7-5.1,3.2-2.3,5.1-3,3.8-1,5.7-1,3.8.3,5.7,1c1.9.7,3.6,1.7,5.2,3,1.5,1.4,2.7,3.1,3.6,5.1.9,2.1,1.4,4.4,1.4,7.1v35c0,2.8-.5,5.2-1.4,7.2s-2.1,3.6-3.6,4.9c-1.5,1.4-3.3,2.4-5.2,3.1s-3.8,1-5.7,1-3.8-.3-5.7-1-3.6-1.7-5.1-3.1c-1.5-1.3-2.8-2.9-3.7-4.9-.9-2-1.4-4.4-1.4-7.2v-35ZM309.7,264.3c0,2.3.6,4,1.9,5.1s2.8,1.6,4.5,1.6,3.2-.5,4.5-1.6,1.9-2.8,1.9-5.1v-35c0-2.3-.6-4-1.9-5.1s-2.8-1.6-4.5-1.6-3.2.5-4.5,1.6-1.9,2.8-1.9,5.1v35Z"/>
  </g>
  <g>
    <path class="cls-1" d="M188.9,84.7h23.7c23.4,0,42.4-19,42.4-42.4h0C255,18.9,236-.1,212.6-.1h-54.3c46.1,12.4,37.3,69.2,30.6,84.7h0Z"/>
    <path class="cls-1" d="M209.3,89.7h-22.6c-7.2,19.3-19.2,37.1-33,51.6-11.9,12.6-24,22.4-34.5,29.8-16.3,11.4-28.7,16.9-30.5,17.5v.4h120.5c27.4,0,49.7-22.2,49.7-49.7h0c0-27.4-22.2-49.7-49.6-49.7h0Z"/>
    <path class="cls-1" d="M183.1,31.9c-2.5-8-8.6-16.4-14.8-20.5-7.4-6-16.8-9.6-27-9.6-23.6,0-42.7,19.1-42.7,42.7s11.7,34.1,28,40.1v.3c.5,1.9,1,3.8,1.3,5.6.1.5.2,1,.3,1.5,4.9,25.7-2.1,46.9-14.9,65.2-2.1,2.9-4.3,5.8-6.6,8.6-8.1,9.7-21.4,20.5-23.3,22.2,0,.1-.2.2-.2.2h.2c1.7-.6,13.8-5.9,29.6-17,10.2-7.2,22-16.7,33.6-28.9,13.4-14.1,25-31.5,32-50.2,0,0,.1-.2.1-.4.3-.9.6-1.7.9-2.6,6.6-19,9.6-37.3,3.3-57l.2-.2Z"/>
  </g>
</svg>