<svg width="101" height="104" viewBox="0 0 101 104" fill="none" xmlns="http://www.w3.org/2000/svg">
<path d="M0 103.021V78.6482H4.25036C5.18262 78.6482 5.97688 78.8175 6.63314 79.1634C7.2894 79.5056 7.82607 79.9619 8.24619 80.5323C8.66326 81.1027 8.96379 81.7578 9.14472 82.5011C9.32565 83.2445 9.41459 84.0136 9.41459 84.8121V85.7027C9.41459 86.3651 9.37165 86.9244 9.28579 87.3808C9.19992 87.8371 9.07112 88.2382 8.89939 88.5804C8.57433 89.2207 8.0806 89.7654 7.41514 90.2217C8.099 90.6081 8.60499 91.1785 8.92699 91.9329C9.24899 92.6873 9.41152 93.714 9.41152 95.013V96.382C9.41152 98.5274 8.97912 100.169 8.11433 101.309C7.24954 102.45 5.86648 103.021 3.96517 103.021H0ZM2.91024 81.9344V88.643H4.22276C5.19182 88.643 5.84502 88.3523 6.17621 87.7708C6.50741 87.1894 6.67607 86.3393 6.67607 85.2206C6.67607 84.124 6.49208 83.3034 6.12101 82.755C5.74995 82.2067 5.08142 81.9344 4.1093 81.9344H2.91024ZM2.91024 91.7268V99.532H4.1645C4.75329 99.532 5.21635 99.429 5.54755 99.2229C5.87875 99.0168 6.13328 98.7335 6.30194 98.3655C6.47368 98.0011 6.57794 97.5669 6.61474 97.0628C6.65154 96.5623 6.67301 96.014 6.67301 95.4215C6.67301 94.8069 6.64541 94.2697 6.58714 93.8133C6.52888 93.357 6.41541 92.9706 6.24368 92.6505C6.05355 92.3303 5.79595 92.0985 5.47395 91.9476C5.14889 91.8004 4.72263 91.7268 4.18903 91.7268H2.91024Z" fill="#191919"/>
<path d="M12.438 103.021L16.9735 78.6482H19.3993L23.9348 103.021H21.0246L20.169 97.784H16.2038L15.3482 103.021H12.438ZM19.6262 94.4978L18.2002 85.6659H18.1419L16.716 94.4978H19.6262Z" fill="#191919"/>
<path d="M27.2988 103.021V78.6482H30.2091V99.5283H35.9713V103.021H27.2988Z" fill="#191919"/>
<path d="M39.7959 103.021V78.6482H42.7061V99.5283H48.4684V103.021H39.7959Z" fill="#191919"/>
<path d="M52.3746 103.021V92.7167L48.3818 78.6482H51.4607L53.8006 88.3339H53.8589L56.1987 78.6482H59.2807L55.2879 92.7167V103.021H52.3746Z" fill="#191919"/>
<path d="M62.6733 103.021V78.6482H65.5836V89.0883H69.1777V78.6482H72.0879V103.021H69.1777V92.1684H65.5836V103.021H62.6733Z" fill="#191919"/>
<path d="M76.5918 84.4C76.5918 83.4175 76.7329 82.5527 77.0181 81.7983C77.3033 81.0439 77.6835 80.4183 78.1588 79.9141C78.6158 79.4357 79.134 79.0714 79.7136 78.8175C80.2932 78.5673 80.879 78.4421 81.4678 78.4421C82.0565 78.4421 82.6423 78.5673 83.2219 78.8175C83.8015 79.0677 84.3289 79.4321 84.8043 79.9141C85.2612 80.4183 85.6323 81.0439 85.9175 81.7983C86.2026 82.5527 86.3468 83.4175 86.3468 84.4V97.2725C86.3468 98.2992 86.2057 99.1788 85.9175 99.9074C85.6323 100.64 85.2612 101.243 84.8043 101.722C84.3289 102.226 83.8015 102.601 83.2219 102.851C82.6423 103.102 82.0565 103.227 81.4678 103.227C80.879 103.227 80.2932 103.102 79.7136 102.851C79.134 102.601 78.6158 102.222 78.1588 101.722C77.6835 101.243 77.3033 100.64 77.0181 99.9074C76.7329 99.1788 76.5918 98.2992 76.5918 97.2725V84.4ZM79.502 97.2689C79.502 98.1116 79.6983 98.7372 80.0878 99.1346C80.4772 99.5357 80.9372 99.7344 81.4708 99.7344C82.0014 99.7344 82.4644 99.5357 82.8539 99.1346C83.2433 98.7372 83.4396 98.1152 83.4396 97.2689V84.3963C83.4396 83.5536 83.2433 82.9317 82.8539 82.5306C82.4644 82.1331 82.0014 81.9307 81.4708 81.9307C80.9372 81.9307 80.4772 82.1295 80.0878 82.5306C79.6983 82.9317 79.502 83.5536 79.502 84.3963V97.2689Z" fill="#191919"/>
<path d="M90.6841 84.4C90.6841 83.4175 90.8282 82.5527 91.1134 81.7983C91.3986 81.0439 91.7789 80.4183 92.2542 79.9141C92.7111 79.4357 93.2294 79.0714 93.809 78.8175C94.3886 78.5673 94.9743 78.4421 95.5631 78.4421C96.1519 78.4421 96.7376 78.5673 97.3172 78.8175C97.8968 79.0677 98.4243 79.4321 98.8996 79.9141C99.3565 80.4183 99.7276 81.0439 100.013 81.7983C100.298 82.5527 100.442 83.4175 100.442 84.4V97.2725C100.442 98.2992 100.301 99.1788 100.013 99.9074C99.7276 100.64 99.3565 101.243 98.8996 101.722C98.4243 102.226 97.8968 102.601 97.3172 102.851C96.7376 103.102 96.1519 103.227 95.5631 103.227C94.9743 103.227 94.3886 103.102 93.809 102.851C93.2294 102.601 92.7111 102.222 92.2542 101.722C91.7789 101.243 91.3986 100.64 91.1134 99.9074C90.8282 99.1788 90.6841 98.2992 90.6841 97.2725V84.4ZM93.5943 97.2689C93.5943 98.1116 93.7906 98.7372 94.18 99.1346C94.5695 99.5357 95.0295 99.7344 95.5631 99.7344C96.0967 99.7344 96.5567 99.5357 96.9462 99.1346C97.3356 98.7372 97.5319 98.1152 97.5319 97.2689V84.3963C97.5319 83.5536 97.3356 82.9317 96.9462 82.5306C96.5567 82.1331 96.0936 81.9307 95.5631 81.9307C95.0295 81.9307 94.5695 82.1295 94.18 82.5306C93.7906 82.9317 93.5943 83.5536 93.5943 84.3963V97.2689Z" fill="#191919"/>
<path d="M54.2736 31.184H61.5507C68.7266 31.184 74.5441 24.2031 74.5441 15.592C74.5441 6.9809 68.7266 0 61.5507 0H44.8896C59.0391 4.57052 56.319 25.4691 54.2736 31.184Z" fill="#191919"/>
<path d="M60.5357 33.0208H53.6051C51.3941 40.1157 47.7172 46.6882 43.4975 52.0241C39.842 56.6498 36.1253 60.2636 32.9053 62.972C27.9067 67.1782 24.104 69.1985 23.5674 69.4193V69.5739H60.5327C68.9445 69.5739 75.7616 61.3933 75.7616 51.2992C75.7647 41.2013 68.9475 33.0208 60.5357 33.0208Z" fill="#191919"/>
<path d="M52.5097 11.7538C51.7369 8.82458 49.8846 5.71132 47.9619 4.19886C45.7048 1.98352 42.8222 0.651367 39.6789 0.651367C32.4539 0.651367 26.5966 7.68011 26.5966 16.3501C26.5966 23.1249 30.1723 28.8988 35.1832 31.0994C35.1924 31.1362 35.2016 31.173 35.2077 31.2061C35.3641 31.909 35.5021 32.5972 35.6186 33.2817C35.6493 33.462 35.6769 33.6423 35.7076 33.8226C37.2225 43.2838 35.0666 51.089 31.126 57.8234C30.4912 58.9053 29.8135 59.9614 29.0959 60.9918C26.6027 64.5687 22.521 68.5394 21.9567 69.1503C21.9199 69.1908 21.8954 69.2165 21.8923 69.2276C21.8893 69.2349 21.9138 69.2276 21.9567 69.2092C22.4781 68.9957 26.1734 67.0306 31.0371 62.9422C34.1681 60.3073 37.7775 56.793 41.3348 52.2997C45.4349 47.1146 49.0106 40.7225 51.1604 33.8263C51.1757 33.7784 51.191 33.7343 51.2064 33.6864C51.3045 33.3663 51.3996 33.0461 51.4916 32.7223C53.5002 25.7267 54.4233 19.0107 52.5097 11.7538Z" fill="#191919"/>
</svg>
